HIERARCHY
ROOT pelvis
{
	OFFSET 0.000000 0.000000 0.856440
	CHANNELS 6 Xposition Yposition Zposition Xrotation Yrotation Zrotation
	JOINT spine
	{
		OFFSET 0.000000 0.000000 0.000000
		CHANNELS 6 Xposition Yposition Zposition Xrotation Yrotation Zrotation
		JOINT spine.001
		{
			OFFSET 0.000000 -0.013183 0.251556
			CHANNELS 3 Xrotation Yrotation Zrotation
			JOINT neck
			{
				OFFSET 0.000000 0.030699 0.250023
				CHANNELS 6 Xposition Yposition Zposition Xrotation Yrotation Zrotation
				JOINT face
				{
					OFFSET 0.000000 0.003313 0.189830
					CHANNELS 6 Xposition Yposition Zposition Xrotation Yrotation Zrotation
					End Site
					{
						OFFSET 0.000000 -0.020757 -0.008279
					}
				}
			}
			JOINT shoulder.L
			{
				OFFSET 0.000000 0.030699 0.250023
				CHANNELS 6 Xposition Yposition Zposition Yrotation Xrotation Zrotation
				JOINT upper_arm.L
				{
					OFFSET 0.159135 0.000000 0.000000
					CHANNELS 6 Xposition Yposition Zposition Xrotation Yrotation Zrotation
					JOINT forearm.L
					{
						OFFSET 0.273564 0.000121 0.001002
						CHANNELS 6 Xposition Yposition Zposition Xrotation Yrotation Zrotation
						End Site
						{
							OFFSET 0.219387 -0.003719 -0.001376
						}
					}
				}
			}
			JOINT shoulder.R
			{
				OFFSET 0.000000 0.030699 0.250023
				CHANNELS 6 Xposition Yposition Zposition Yrotation Xrotation Zrotation
				JOINT upper_arm.R
				{
					OFFSET -0.159135 0.000000 0.000000
					CHANNELS 6 Xposition Yposition Zposition Xrotation Yrotation Zrotation
					JOINT forearm.R
					{
						OFFSET -0.268412 0.000121 0.001002
						CHANNELS 6 Xposition Yposition Zposition Xrotation Yrotation Zrotation
						End Site
						{
							OFFSET -0.228708 -0.003881 -0.001377
						}
					}
				}
			}
		}
	}
	JOINT pelvis.L
	{
		OFFSET 0.000000 0.000000 0.000000
		CHANNELS 6 Xposition Yposition Zposition Yrotation Xrotation Zrotation
		End Site
		{
			OFFSET 0.107785 0.000000 0.000000
		}
	}
	JOINT pelvis.R
	{
		OFFSET 0.000000 0.000000 0.000000
		CHANNELS 6 Xposition Yposition Zposition Yrotation Xrotation Zrotation
		End Site
		{
			OFFSET -0.107785 0.000000 0.000000
		}
	}
	JOINT thigh.L
	{
		OFFSET 0.107785 0.000000 0.000000
		CHANNELS 6 Xposition Yposition Zposition Xrotation Yrotation Zrotation
		JOINT shin.L
		{
			OFFSET 0.020459 0.000000 -0.390378
			CHANNELS 6 Xposition Yposition Zposition Xrotation Yrotation Zrotation
			JOINT foot.L
			{
				OFFSET 0.021412 0.000000 -0.408556
				CHANNELS 3 Xrotation Yrotation Zrotation
				End Site
				{
					OFFSET 0.015864 -0.161752 -0.067922
				}
			}
			JOINT heel.02.L
			{
				OFFSET 0.021412 0.000000 -0.408556
				CHANNELS 3 Xrotation Yrotation Zrotation
				End Site
				{
					OFFSET 0.105193 0.036022 -0.050974
				}
			}
		}
	}
	JOINT thigh.R
	{
		OFFSET -0.107785 0.000000 0.000000
		CHANNELS 6 Xposition Yposition Zposition Xrotation Yrotation Zrotation
		JOINT shin.R
		{
			OFFSET -0.021327 0.000000 -0.406942
			CHANNELS 6 Xposition Yposition Zposition Xrotation Yrotation Zrotation
			JOINT foot.R
			{
				OFFSET -0.019268 0.000000 -0.367658
				CHANNELS 3 Xrotation Yrotation Zrotation
				End Site
				{
					OFFSET -0.015756 -0.160651 -0.067460
				}
			}
			JOINT heel.02.R
			{
				OFFSET -0.019268 0.000000 -0.367658
				CHANNELS 3 Xrotation Yrotation Zrotation
				End Site
				{
					OFFSET -0.090853 0.036022 -0.076126
				}
			}
		}
	}
}
MOTION
Frames: 6
Frame Time: 0.041667
-0.094075 -0.002106 0.843089 -0.000000 0.000000 40.694472 0.000000 -0.000000 -0.000000 -7.868075 -4.008968 -0.487751 9.958300 0.764740 6.240923 0.000000 0.030699 0.250023 15.618177 1.073578 2.295409 -0.000000 0.003313 0.189830 12.679942 0.000003 0.000003 0.000000 0.030699 0.250023 0.491844 0.000259 -0.060443 0.159135 0.000000 0.000000 37.911235 71.675295 -50.811037 0.273564 0.000121 0.001002 17.872833 12.602366 -110.948958 0.000000 0.030699 0.250023 0.547900 0.000323 -0.067324 -0.159135 0.000000 0.000000 42.542916 -69.309126 58.689323 -0.268412 0.000121 0.001002 25.759956 -17.951938 110.776810 -0.000000 -0.000000 0.000000 -3.190190 -0.000002 -0.000067 -0.000000 -0.000000 0.000000 -3.190191 0.000000 -0.000003 0.107618 -0.000000 0.005998 -20.539443 2.251928 -0.680732 0.020459 -0.000000 -0.390378 30.390589 -0.166742 1.676168 -5.539230 -1.434898 1.836031 -24.801028 48.762565 40.887452 -0.107618 -0.000000 -0.005998 4.784000 -11.164786 0.218115 -0.021327 0.000000 -0.406942 -3.795647 -0.465793 0.183600 1.885485 0.695578 -2.190849 -7.885162 -43.086968 -29.741704 
-0.094079 -0.002091 0.843086 -0.000000 0.000000 40.674210 -0.000000 0.000000 0.000000 -7.875013 -3.990263 -0.485724 9.959064 0.756763 6.175679 -0.000000 0.030699 0.250023 15.678452 1.102164 2.256195 -0.000000 0.003313 0.189830 12.710369 0.000001 -0.000007 0.000000 0.030699 0.250024 0.473522 0.000240 -0.058250 0.159135 0.000000 0.000000 37.859827 71.759231 -50.678368 0.273564 0.000121 0.001002 17.622858 12.436667 -110.940454 0.000000 0.030699 0.250024 0.529621 0.000301 -0.065131 -0.159135 0.000000 -0.000000 42.546959 -69.300616 58.702177 -0.268412 0.000121 0.001002 25.519368 -17.810056 110.707244 -0.000000 -0.000000 0.000000 -3.180321 0.000002 0.000065 -0.000000 -0.000000 0.000000 -3.180353 0.000000 0.000010 0.107619 -0.000000 0.005980 -20.531783 2.244969 -0.681727 0.020459 0.000000 -0.390378 30.390097 -0.158195 1.673828 -5.551395 -1.418578 1.798948 -24.801554 48.763610 40.874038 -0.107619 -0.000000 -0.005980 4.786232 -11.164637 0.218215 -0.021327 -0.000000 -0.406942 -3.804219 -0.454839 0.184372 1.898920 0.684035 -2.166130 -7.885891 -43.091626 -29.749480 
-0.094078 -0.002057 0.843088 -0.000000 0.000000 40.642545 0.000000 0.000000 -0.000000 -7.878273 -3.972803 -0.483710 9.959942 0.749166 6.113499 -0.000000 0.030699 0.250023 15.718229 1.120221 2.332950 -0.000000 0.003314 0.189830 12.718938 -0.000000 0.000006 -0.000000 0.030699 0.250023 0.445205 0.000212 -0.054728 0.159135 0.000000 -0.000000 37.851853 71.841863 -50.601689 0.273564 0.000121 0.001002 17.485597 12.341390 -110.955344 0.000000 0.030699 0.250024 0.501218 0.000268 -0.061602 -0.159135 -0.000000 0.000000 42.624369 -69.290869 58.808714 -0.268412 0.000121 0.001002 25.210863 -17.634445 110.596561 0.000000 -0.000000 -0.000000 -3.178195 0.000001 0.000061 0.000000 -0.000000 -0.000000 -3.178227 0.000000 -0.000002 0.107620 0.000000 0.005976 -20.521085 2.236759 -0.682858 0.020459 0.000000 -0.390378 30.386924 -0.147909 1.670859 -5.556329 -1.414046 1.788255 -24.795593 48.760171 40.860405 -0.107620 -0.000000 -0.005976 4.791002 -11.171026 0.218700 -0.021327 0.000000 -0.406942 -3.818933 -0.427030 0.186012 1.906858 0.670617 -2.135063 -7.869631 -43.091312 -29.769619 
-0.094071 -0.002004 0.843107 -0.000000 0.000000 40.604057 0.000000 -0.000000 -0.000000 -7.875695 -3.957509 -0.481750 9.960250 0.745136 6.080686 0.000000 0.030699 0.250023 15.733477 1.124780 2.484361 -0.000000 0.003313 0.189830 12.726412 0.000005 0.000009 0.000000 0.030699 0.250023 0.412309 0.000181 -0.050739 0.159135 0.000000 0.000000 37.871046 71.908635 -50.571991 0.273564 0.000121 0.001002 17.453336 12.311378 -110.993880 0.000000 0.030699 0.250023 0.468322 0.000235 -0.057615 -0.159135 -0.000000 -0.000000 42.761960 -69.267797 59.003299 -0.268412 0.000121 0.001002 24.946330 -17.486521 110.491485 0.000000 -0.000000 0.000000 -3.180385 -0.000001 -0.000051 0.000000 -0.000000 0.000000 -3.180354 -0.000000 0.000000 0.107619 -0.000000 0.005980 -20.508743 2.231799 -0.683331 0.020459 0.000000 -0.390378 30.380292 -0.142775 1.669086 -5.547676 -1.418568 1.799872 -24.785179 48.753344 40.852891 -0.107619 0.000000 -0.005980 4.795392 -11.180565 0.219310 -0.021327 -0.000000 -0.406942 -3.833941 -0.392466 0.187894 1.922514 0.653646 -2.097457 -7.838274 -43.084820 -29.797366 
-0.094052 -0.001940 0.843130 -0.000000 0.000000 40.565815 0.000000 -0.000000 -0.000000 -7.867003 -3.944818 -0.479905 9.960339 0.746392 6.090533 0.000000 0.030699 0.250023 15.728759 1.117460 2.639144 -0.000000 0.003314 0.189830 12.759445 -0.000002 -0.000001 0.000000 0.030699 0.250023 0.382235 0.000158 -0.046950 0.159135 0.000000 -0.000000 37.923365 71.959356 -50.596897 0.273564 0.000121 0.001002 17.464036 12.308917 -111.038017 0.000000 0.030699 0.250024 0.438290 0.000208 -0.053847 -0.159135 0.000000 0.000000 42.909502 -69.248003 59.207433 -0.268412 0.000121 0.001002 24.758913 -17.380444 110.420076 -0.000000 -0.000000 -0.000000 -3.180449 0.000001 0.000038 -0.000000 -0.000000 -0.000000 -3.180417 0.000000 0.000007 0.107619 0.000000 0.005980 -20.496047 2.233835 -0.682527 0.020459 0.000000 -0.390378 30.369487 -0.147033 1.669610 -5.528536 -1.424919 1.817961 -24.781712 48.750533 40.861436 -0.107619 -0.000000 -0.005980 4.794618 -11.185666 0.219494 -0.021327 -0.000000 -0.406942 -3.837180 -0.369203 0.188828 1.945946 0.633675 -2.054616 -7.806153 -43.073936 -29.817840 
-0.094015 -0.001868 0.843136 -0.000000 0.000000 40.533642 0.000000 0.000000 0.000000 -7.854303 -3.935182 -0.478289 9.959936 0.750561 6.124526 -0.000000 0.030699 0.250023 15.722636 1.116734 2.765480 -0.000000 0.003313 0.189830 12.819264 -0.000003 -0.000001 -0.000000 0.030699 0.250023 0.360409 0.000139 -0.044274 0.159135 0.000000 -0.000000 38.012141 72.000296 -50.675332 0.273564 0.000121 0.001002 17.442116 12.289362 -111.060481 -0.000000 0.030699 0.250023 0.416463 0.000186 -0.051164 -0.159135 -0.000000 0.000000 43.018857 -69.249792 59.343661 -0.268412 0.000121 0.001002 24.618828 -17.297849 110.376820 0.000000 0.000000 0.000000 -3.179401 0.000001 0.000038 0.000000 0.000000 0.000000 -3.179402 0.000000 0.000005 0.107619 -0.000000 0.005978 -20.483910 2.243454 -0.680380 0.020459 -0.000000 -0.390378 30.355734 -0.159548 1.672203 -5.505933 -1.426434 1.826876 -24.792320 48.756438 40.889662 -0.107619 -0.000000 -0.005978 4.788843 -11.183509 0.219135 -0.021327 -0.000000 -0.406942 -3.827075 -0.362986 0.188542 1.973041 0.613517 -2.012301 -7.788700 -43.065985 -29.825192 
